<mxfile host="app.diagrams.net" modified="2020-10-29T17:34:32.281Z" agent="5.0 (Windows NT 10.0; Win64; x64) AppleWebKit/537.36 (KHTML, like Gecko) Chrome/86.0.4240.111 Safari/537.36 Edg/86.0.622.51" etag="D3ffs5hEbxE7UJdU9Gok" version="13.8.7" type="github">
  <diagram id="C5RBs43oDa-KdzZeNtuy" name="Page-1">
    <mxGraphModel dx="866" dy="522" grid="1" gridSize="10" guides="1" tooltips="1" connect="1" arrows="1" fold="1" page="1" pageScale="1" pageWidth="827" pageHeight="1169" math="0" shadow="0">
      <root>
        <mxCell id="WIyWlLk6GJQsqaUBKTNV-0" />
        <mxCell id="WIyWlLk6GJQsqaUBKTNV-1" parent="WIyWlLk6GJQsqaUBKTNV-0" />
        <mxCell id="SzNEzdbq35BOsvhFyTJQ-2" value="" style="edgeStyle=orthogonalEdgeStyle;rounded=0;orthogonalLoop=1;jettySize=auto;html=1;fontSize=12;" edge="1" parent="WIyWlLk6GJQsqaUBKTNV-1" source="SzNEzdbq35BOsvhFyTJQ-0" target="SzNEzdbq35BOsvhFyTJQ-1">
          <mxGeometry relative="1" as="geometry" />
        </mxCell>
        <mxCell id="SzNEzdbq35BOsvhFyTJQ-0" value="Start" style="ellipse;whiteSpace=wrap;html=1;aspect=fixed;fontSize=12;" vertex="1" parent="WIyWlLk6GJQsqaUBKTNV-1">
          <mxGeometry y="5" width="80" height="80" as="geometry" />
        </mxCell>
        <mxCell id="SzNEzdbq35BOsvhFyTJQ-4" value="" style="edgeStyle=orthogonalEdgeStyle;rounded=0;orthogonalLoop=1;jettySize=auto;html=1;fontSize=12;" edge="1" parent="WIyWlLk6GJQsqaUBKTNV-1" source="SzNEzdbq35BOsvhFyTJQ-1" target="SzNEzdbq35BOsvhFyTJQ-3">
          <mxGeometry relative="1" as="geometry" />
        </mxCell>
        <mxCell id="SzNEzdbq35BOsvhFyTJQ-1" value="&lt;span style=&quot;color: rgb(60 , 64 , 67) ; font-family: &amp;#34;roboto&amp;#34; , &amp;#34;arial&amp;#34; , sans-serif ; font-size: 12px ; letter-spacing: 0.2px&quot;&gt;Circle&lt;br style=&quot;font-size: 12px&quot;&gt;&amp;nbsp;Square &lt;br&gt;Rectangle Parallelogram&lt;/span&gt;" style="whiteSpace=wrap;html=1;fontSize=12;" vertex="1" parent="WIyWlLk6GJQsqaUBKTNV-1">
          <mxGeometry x="140" width="120" height="90" as="geometry" />
        </mxCell>
        <mxCell id="SzNEzdbq35BOsvhFyTJQ-10" value="" style="edgeStyle=orthogonalEdgeStyle;rounded=0;orthogonalLoop=1;jettySize=auto;html=1;fontSize=12;" edge="1" parent="WIyWlLk6GJQsqaUBKTNV-1" source="SzNEzdbq35BOsvhFyTJQ-3" target="SzNEzdbq35BOsvhFyTJQ-9">
          <mxGeometry relative="1" as="geometry" />
        </mxCell>
        <mxCell id="SzNEzdbq35BOsvhFyTJQ-3" value="User input&amp;nbsp;&lt;br&gt;Name of Geometry" style="whiteSpace=wrap;html=1;" vertex="1" parent="WIyWlLk6GJQsqaUBKTNV-1">
          <mxGeometry x="140" y="120" width="120" height="90" as="geometry" />
        </mxCell>
        <mxCell id="SzNEzdbq35BOsvhFyTJQ-14" value="YES" style="edgeStyle=orthogonalEdgeStyle;rounded=0;orthogonalLoop=1;jettySize=auto;html=1;fontSize=12;" edge="1" parent="WIyWlLk6GJQsqaUBKTNV-1" source="SzNEzdbq35BOsvhFyTJQ-9" target="SzNEzdbq35BOsvhFyTJQ-13">
          <mxGeometry relative="1" as="geometry" />
        </mxCell>
        <mxCell id="SzNEzdbq35BOsvhFyTJQ-18" value="" style="edgeStyle=orthogonalEdgeStyle;rounded=0;orthogonalLoop=1;jettySize=auto;html=1;fontSize=12;" edge="1" parent="WIyWlLk6GJQsqaUBKTNV-1" source="SzNEzdbq35BOsvhFyTJQ-9" target="SzNEzdbq35BOsvhFyTJQ-17">
          <mxGeometry relative="1" as="geometry" />
        </mxCell>
        <mxCell id="SzNEzdbq35BOsvhFyTJQ-9" value="Circle" style="rhombus;whiteSpace=wrap;html=1;" vertex="1" parent="WIyWlLk6GJQsqaUBKTNV-1">
          <mxGeometry x="160" y="240" width="80" height="80" as="geometry" />
        </mxCell>
        <mxCell id="SzNEzdbq35BOsvhFyTJQ-16" value="" style="edgeStyle=orthogonalEdgeStyle;rounded=0;orthogonalLoop=1;jettySize=auto;html=1;fontSize=12;" edge="1" parent="WIyWlLk6GJQsqaUBKTNV-1" source="SzNEzdbq35BOsvhFyTJQ-13" target="SzNEzdbq35BOsvhFyTJQ-15">
          <mxGeometry relative="1" as="geometry" />
        </mxCell>
        <mxCell id="SzNEzdbq35BOsvhFyTJQ-13" value="User Input &lt;br&gt;Radius&lt;br&gt;R" style="whiteSpace=wrap;html=1;" vertex="1" parent="WIyWlLk6GJQsqaUBKTNV-1">
          <mxGeometry x="140" y="350" width="120" height="60" as="geometry" />
        </mxCell>
        <mxCell id="SzNEzdbq35BOsvhFyTJQ-15" value="Perimeter&lt;br&gt;C = 2*R*3.14&lt;br&gt;S = R*R*3.14" style="whiteSpace=wrap;html=1;" vertex="1" parent="WIyWlLk6GJQsqaUBKTNV-1">
          <mxGeometry x="140" y="440" width="120" height="60" as="geometry" />
        </mxCell>
        <mxCell id="SzNEzdbq35BOsvhFyTJQ-20" value="YES" style="edgeStyle=orthogonalEdgeStyle;rounded=0;orthogonalLoop=1;jettySize=auto;html=1;fontSize=12;" edge="1" parent="WIyWlLk6GJQsqaUBKTNV-1" source="SzNEzdbq35BOsvhFyTJQ-17" target="SzNEzdbq35BOsvhFyTJQ-19">
          <mxGeometry relative="1" as="geometry" />
        </mxCell>
        <mxCell id="SzNEzdbq35BOsvhFyTJQ-17" value="Square" style="rhombus;whiteSpace=wrap;html=1;" vertex="1" parent="WIyWlLk6GJQsqaUBKTNV-1">
          <mxGeometry x="320" y="240" width="80" height="80" as="geometry" />
        </mxCell>
        <mxCell id="SzNEzdbq35BOsvhFyTJQ-19" value="User Input&amp;nbsp;&lt;br&gt;A" style="whiteSpace=wrap;html=1;" vertex="1" parent="WIyWlLk6GJQsqaUBKTNV-1">
          <mxGeometry x="300" y="350" width="120" height="60" as="geometry" />
        </mxCell>
      </root>
    </mxGraphModel>
  </diagram>
</mxfile>
